<svg width="483" height="388" viewBox="0 0 483 388" fill="none" xmlns="http://www.w3.org/2000/svg">
<mask id="path-1-outside-1_1_7" maskUnits="userSpaceOnUse" x="0" y="0" width="483" height="388" fill="black">
<rect fill="white" width="483" height="388"/>
<path fill-rule="evenodd" clip-rule="evenodd" d="M2 1L105.201 373.104H161.889L163.205 368.42C185.597 380.293 210.679 386.23 238.452 386.23C268.534 386.23 295.46 379.265 319.23 365.333L321.414 373.104H377.92L481.302 1H422.071L392.182 120.182C389.225 110.767 385.646 101.821 381.443 93.3434C367.271 64.7573 347.83 42.712 323.12 27.2077C307.634 17.491 290.768 10.819 272.523 7.19185L270.904 1H212.399L211.089 6.00499C190.252 9.24326 171.15 16.3108 153.783 27.2077C129.073 42.712 109.632 64.7573 95.4602 93.3434C92.86 98.5884 90.4983 104.013 88.3751 109.616L61.0498 1H2ZM138.111 284.904L136.997 289.163H133.545L88.3751 109.616C78.9266 134.555 74.2023 163.046 74.2023 195.091C74.2023 234.336 81.2883 268.252 95.4602 296.838C109.632 325.424 129.073 347.469 153.783 362.974C156.869 364.91 160.01 366.725 163.205 368.42L175.206 325.704C175.873 326.143 176.545 326.575 177.221 326.999C195.512 338.385 215.922 344.078 238.452 344.078C260.981 344.078 281.331 338.385 299.5 326.999C302.081 325.392 304.586 323.678 307.015 321.857L319.23 365.333C320.536 364.568 321.833 363.781 323.12 362.974C347.83 347.469 367.271 325.424 381.443 296.838C395.615 268.252 402.701 234.336 402.701 195.091C402.701 167.484 399.194 142.514 392.182 120.182L349.758 289.345H346.306L342.968 276.581C353.719 254.43 359.095 227.267 359.095 195.091C359.095 162.871 353.705 135.678 342.924 113.511C332.265 91.3448 317.79 74.5686 299.5 63.1826C294.867 60.2796 290.093 57.7467 285.177 55.5838L272.523 7.19185C261.655 5.03138 250.298 3.95115 238.452 3.95115C229.021 3.95115 219.9 4.63576 211.089 6.00499L198.868 52.7125C191.349 55.3894 184.134 58.8794 177.221 63.1826C159.052 74.5686 144.578 91.3448 133.797 113.511C123.138 135.678 117.808 162.871 117.808 195.091C117.808 227.311 123.138 254.504 133.797 276.67C135.175 279.503 136.613 282.248 138.111 284.904ZM198.868 52.7125L138.111 284.904C147.901 302.262 160.266 315.862 175.206 325.704L240.198 94.3895H243.105L307.015 321.857C321.799 310.771 333.769 295.709 342.924 276.67C342.939 276.64 342.953 276.61 342.968 276.581L285.177 55.5838C270.812 49.2637 255.237 46.1036 238.452 46.1036C224.437 46.1036 211.242 48.3066 198.868 52.7125Z"/>
</mask>
<g filter="url(#filter0_i_1_7)">
<path fill-rule="evenodd" clip-rule="evenodd" d="M2 1L105.201 373.104H161.889L163.205 368.42C185.597 380.293 210.679 386.23 238.452 386.23C268.534 386.23 295.46 379.265 319.23 365.333L321.414 373.104H377.92L481.302 1H422.071L392.182 120.182C389.225 110.767 385.646 101.821 381.443 93.3434C367.271 64.7573 347.83 42.712 323.12 27.2077C307.634 17.491 290.768 10.819 272.523 7.19185L270.904 1H212.399L211.089 6.00499C190.252 9.24326 171.15 16.3108 153.783 27.2077C129.073 42.712 109.632 64.7573 95.4602 93.3434C92.86 98.5884 90.4983 104.013 88.3751 109.616L61.0498 1H2ZM138.111 284.904L136.997 289.163H133.545L88.3751 109.616C78.9266 134.555 74.2023 163.046 74.2023 195.091C74.2023 234.336 81.2883 268.252 95.4602 296.838C109.632 325.424 129.073 347.469 153.783 362.974C156.869 364.91 160.01 366.725 163.205 368.42L175.206 325.704C175.873 326.143 176.545 326.575 177.221 326.999C195.512 338.385 215.922 344.078 238.452 344.078C260.981 344.078 281.331 338.385 299.5 326.999C302.081 325.392 304.586 323.678 307.015 321.857L319.23 365.333C320.536 364.568 321.833 363.781 323.12 362.974C347.83 347.469 367.271 325.424 381.443 296.838C395.615 268.252 402.701 234.336 402.701 195.091C402.701 167.484 399.194 142.514 392.182 120.182L349.758 289.345H346.306L342.968 276.581C353.719 254.43 359.095 227.267 359.095 195.091C359.095 162.871 353.705 135.678 342.924 113.511C332.265 91.3448 317.79 74.5686 299.5 63.1826C294.867 60.2796 290.093 57.7467 285.177 55.5838L272.523 7.19185C261.655 5.03138 250.298 3.95115 238.452 3.95115C229.021 3.95115 219.9 4.63576 211.089 6.00499L198.868 52.7125C191.349 55.3894 184.134 58.8794 177.221 63.1826C159.052 74.5686 144.578 91.3448 133.797 113.511C123.138 135.678 117.808 162.871 117.808 195.091C117.808 227.311 123.138 254.504 133.797 276.67C135.175 279.503 136.613 282.248 138.111 284.904ZM198.868 52.7125L138.111 284.904C147.901 302.262 160.266 315.862 175.206 325.704L240.198 94.3895H243.105L307.015 321.857C321.799 310.771 333.769 295.709 342.924 276.67C342.939 276.64 342.953 276.61 342.968 276.581L285.177 55.5838C270.812 49.2637 255.237 46.1036 238.452 46.1036C224.437 46.1036 211.242 48.3066 198.868 52.7125Z" fill="#6D8CDB"/>
</g>
<path d="M105.201 373.104L104.237 373.372L104.44 374.104H105.201V373.104ZM2 1V0H0.684909L1.03637 1.26726L2 1ZM161.889 373.104V374.104H162.646L162.851 373.375L161.889 373.104ZM321.414 373.104L320.451 373.375L320.656 374.104H321.414V373.104ZM377.92 373.104V374.104H378.68L378.883 373.372L377.92 373.104ZM481.302 1L482.266 1.26769L482.618 0H481.302V1ZM422.071 1V0H421.291L421.101 0.756745L422.071 1ZM381.443 93.3434L380.547 93.7876L380.547 93.7876L381.443 93.3434ZM323.12 27.2077L322.588 28.0547L322.588 28.0547L323.12 27.2077ZM270.904 1L271.871 0.747007L271.676 0H270.904V1ZM212.399 1V0H211.627L211.431 0.746858L212.399 1ZM153.783 27.2077L153.252 26.3606L153.252 26.3606L153.783 27.2077ZM95.4602 93.3434L96.3562 93.7876L96.3562 93.7876L95.4602 93.3434ZM61.0498 1L62.0196 0.756026L61.8294 0H61.0498V1ZM136.997 289.163V290.163H137.769L137.964 289.416L136.997 289.163ZM133.545 289.163L132.575 289.407L132.765 290.163H133.545V289.163ZM153.783 362.974L153.252 363.821L153.252 363.821L153.783 362.974ZM177.221 326.999L176.69 327.846L176.693 327.848L177.221 326.999ZM299.5 326.999L298.971 326.15L298.969 326.151L299.5 326.999ZM323.12 362.974L323.651 363.821L323.651 363.821L323.12 362.974ZM381.443 296.838L380.547 296.394L380.547 296.394L381.443 296.838ZM349.758 289.345V290.345H350.538L350.728 289.588L349.758 289.345ZM346.306 289.345L345.338 289.598L345.533 290.345H346.306V289.345ZM342.924 113.511L342.023 113.945L342.025 113.949L342.924 113.511ZM299.5 63.1826L298.969 64.03L298.971 64.0316L299.5 63.1826ZM177.221 63.1826L176.693 62.3337L176.69 62.3353L177.221 63.1826ZM133.797 113.511L132.898 113.074L132.896 113.078L133.797 113.511ZM133.797 276.67L132.896 277.104L132.898 277.108L133.797 276.67ZM240.198 94.3895V93.3895H239.44L239.235 94.119L240.198 94.3895ZM243.105 94.3895L244.068 94.119L243.863 93.3895H243.105V94.3895ZM342.924 276.67L342.025 276.233L342.023 276.237L342.924 276.67ZM106.164 372.837L2.96363 0.732744L1.03637 1.26726L104.237 373.372L106.164 372.837ZM161.889 372.104H105.201V374.104H161.889V372.104ZM162.242 368.149L160.926 372.834L162.851 373.375L164.168 368.69L162.242 368.149ZM238.452 385.23C210.827 385.23 185.908 379.326 163.673 367.536L162.736 369.303C185.286 381.261 210.532 387.23 238.452 387.23V385.23ZM318.725 364.47C295.122 378.304 268.373 385.23 238.452 385.23V387.23C268.695 387.23 295.799 380.225 319.736 366.196L318.725 364.47ZM322.377 372.834L320.193 365.063L318.268 365.604L320.451 373.375L322.377 372.834ZM377.92 372.104H321.414V374.104H377.92V372.104ZM480.339 0.732308L376.956 372.837L378.883 373.372L482.266 1.26769L480.339 0.732308ZM422.071 2H481.302V0H422.071V2ZM393.152 120.425L423.041 1.24325L421.101 0.756745L391.212 119.939L393.152 120.425ZM380.547 93.7876C384.726 102.217 388.286 111.114 391.228 120.482L393.136 119.882C390.164 110.42 386.566 101.425 382.339 92.8993L380.547 93.7876ZM322.588 28.0547C347.128 43.4519 366.449 65.3508 380.547 93.7876L382.339 92.8993C368.093 64.1638 348.532 41.9722 323.651 26.3606L322.588 28.0547ZM272.328 8.17266C290.456 11.7765 307.207 18.4039 322.588 28.0547L323.651 26.3606C308.06 16.5781 291.08 9.86152 272.718 6.21105L272.328 8.17266ZM269.936 1.25299L271.555 7.44485L273.49 6.93886L271.871 0.747007L269.936 1.25299ZM212.399 2H270.904V0H212.399V2ZM212.057 6.25813L213.366 1.25314L211.431 0.746858L210.122 5.75185L212.057 6.25813ZM154.315 28.0547C171.563 17.2322 190.536 10.2111 211.243 6.99313L210.936 5.01685C189.968 8.27537 170.737 15.3895 153.252 26.3606L154.315 28.0547ZM96.3562 93.7876C110.454 65.3508 129.775 43.4519 154.315 28.0547L153.252 26.3606C128.371 41.9722 108.81 64.1638 94.5643 92.8993L96.3562 93.7876ZM89.3102 109.971C91.4221 104.397 93.7708 99.0026 96.3562 93.7876L94.5643 92.8993C91.9492 98.1742 89.5745 103.629 87.44 109.262L89.3102 109.971ZM60.08 1.24397L87.4053 109.86L89.3449 109.373L62.0196 0.756026L60.08 1.24397ZM2 2H61.0498V0H2V2ZM137.964 289.416L139.079 285.158L137.144 284.651L136.029 288.91L137.964 289.416ZM133.545 290.163H136.997V288.163H133.545V290.163ZM87.4053 109.86L132.575 289.407L134.515 288.919L89.3449 109.373L87.4053 109.86ZM75.2023 195.091C75.2023 163.143 79.9123 134.775 89.3102 109.971L87.44 109.262C77.9409 134.334 73.2023 162.949 73.2023 195.091H75.2023ZM96.3562 296.394C82.2666 267.974 75.2023 234.217 75.2023 195.091H73.2023C73.2023 234.455 80.3099 268.53 94.5643 297.282L96.3562 296.394ZM154.315 362.127C129.775 346.73 110.454 324.831 96.3562 296.394L94.5643 297.282C108.81 326.018 128.371 348.209 153.252 363.821L154.315 362.127ZM163.673 367.536C160.5 365.853 157.38 364.05 154.315 362.127L153.252 363.821C156.358 365.77 159.519 367.597 162.736 369.303L163.673 367.536ZM174.244 325.434L162.242 368.149L164.168 368.69L176.169 325.975L174.244 325.434ZM174.656 326.539C175.329 326.982 176.007 327.418 176.69 327.846L177.752 326.151C177.082 325.731 176.417 325.304 175.757 324.869L174.656 326.539ZM176.693 327.848C195.149 339.337 215.744 345.078 238.452 345.078V343.078C216.1 343.078 195.874 337.433 177.75 326.15L176.693 327.848ZM238.452 345.078C261.159 345.078 281.694 339.337 300.031 327.846L298.969 326.151C280.967 337.433 260.803 343.078 238.452 343.078V345.078ZM300.028 327.848C302.634 326.226 305.163 324.495 307.615 322.657L306.415 321.057C304.009 322.861 301.528 324.558 298.971 326.15L300.028 327.848ZM320.193 365.063L307.978 321.586L306.052 322.127L318.268 365.604L320.193 365.063ZM322.588 362.127C321.31 362.929 320.022 363.71 318.725 364.47L319.736 366.196C321.051 365.425 322.356 364.634 323.651 363.821L322.588 362.127ZM380.547 296.394C366.449 324.831 347.128 346.73 322.588 362.127L323.651 363.821C348.532 348.209 368.093 326.018 382.339 297.282L380.547 296.394ZM401.701 195.091C401.701 234.217 394.636 267.974 380.547 296.394L382.339 297.282C396.593 268.53 403.701 234.455 403.701 195.091H401.701ZM391.228 120.482C398.205 142.701 401.701 167.568 401.701 195.091H403.701C403.701 167.4 400.184 142.327 393.136 119.882L391.228 120.482ZM350.728 289.588L393.152 120.425L391.212 119.939L348.788 289.101L350.728 289.588ZM346.306 290.345H349.758V288.345H346.306V290.345ZM342 276.834L345.338 289.598L347.273 289.092L343.935 276.328L342 276.834ZM343.867 277.017C354.702 254.696 360.095 227.374 360.095 195.091H358.095C358.095 227.161 352.736 254.165 342.068 276.144L343.867 277.017ZM360.095 195.091C360.095 162.764 354.687 135.412 343.823 113.074L342.025 113.949C352.722 135.943 358.095 162.978 358.095 195.091H360.095ZM343.825 113.078C333.096 90.7652 318.502 73.8337 300.028 62.3337L298.971 64.0316C317.079 75.3036 331.434 91.9244 342.023 113.945L343.825 113.078ZM300.031 62.3353C295.358 59.407 290.541 56.8512 285.58 54.6685L284.775 56.4991C289.645 58.6421 294.377 61.1522 298.969 64.03L300.031 62.3353ZM271.555 7.44485L284.21 55.8368L286.145 55.3308L273.49 6.93886L271.555 7.44485ZM238.452 4.95115C250.237 4.95115 261.529 6.0258 272.328 8.17266L272.718 6.21105C261.782 4.03696 250.359 2.95115 238.452 2.95115V4.95115ZM211.243 6.99313C220 5.63223 229.069 4.95115 238.452 4.95115V2.95115C228.972 2.95115 219.8 3.63929 210.936 5.01685L211.243 6.99313ZM199.835 52.9657L212.057 6.25813L210.122 5.75185L197.9 52.4594L199.835 52.9657ZM198.532 51.7705C190.945 54.4718 183.665 57.9934 176.693 62.3337L177.75 64.0316C184.603 59.7655 191.754 56.3069 199.203 53.6546L198.532 51.7705ZM176.69 62.3353C158.34 73.8349 143.748 90.7647 132.898 113.074L134.696 113.949C145.407 91.9249 159.765 75.3023 177.752 64.03L176.69 62.3353ZM132.896 113.078C122.155 135.415 116.808 162.765 116.808 195.091H118.808C118.808 162.976 124.121 135.941 134.698 113.945L132.896 113.078ZM116.808 195.091C116.808 227.416 122.155 254.767 132.896 277.104L134.698 276.237C124.121 254.241 118.808 227.205 118.808 195.091H116.808ZM132.898 277.108C134.284 279.958 135.732 282.721 137.24 285.396L138.982 284.413C137.494 281.775 136.066 279.048 134.696 276.233L132.898 277.108ZM139.079 285.158L199.835 52.9657L197.9 52.4594L137.144 284.651L139.079 285.158ZM137.24 285.396C147.099 302.876 159.568 316.6 174.656 326.539L175.757 324.869C160.963 315.124 148.703 301.648 138.982 284.413L137.24 285.396ZM239.235 94.119L174.244 325.434L176.169 325.975L241.16 94.66L239.235 94.119ZM243.105 93.3895H240.198V95.3895H243.105V93.3895ZM307.978 321.586L244.068 94.119L242.142 94.66L306.052 322.127L307.978 321.586ZM307.615 322.657C322.545 311.462 334.611 296.266 343.825 277.104L342.023 276.237C332.927 295.152 321.054 310.08 306.415 321.057L307.615 322.657ZM343.823 277.108C343.838 277.078 343.853 277.047 343.867 277.017L342.068 276.144C342.054 276.174 342.039 276.203 342.025 276.233L343.823 277.108ZM284.21 55.8368L342 276.834L343.935 276.328L286.145 55.3308L284.21 55.8368ZM285.58 54.6685C271.079 48.2887 255.366 45.1036 238.452 45.1036V47.1036C255.108 47.1036 270.545 50.2386 284.775 56.4991L285.58 54.6685ZM238.452 45.1036C224.33 45.1036 211.021 47.3237 198.532 51.7705L199.203 53.6546C211.463 49.2895 224.543 47.1036 238.452 47.1036V45.1036Z" fill="#7D7676" mask="url(#path-1-outside-1_1_7)"/>
<defs>
<filter id="filter0_i_1_7" x="0.684906" y="0" width="481.933" height="392.347" filterUnits="userSpaceOnUse" color-interpolation-filters="sRGB">
<feFlood flood-opacity="0" result="BackgroundImageFix"/>
<feBlend mode="normal" in="SourceGraphic" in2="BackgroundImageFix" result="shape"/>
<feColorMatrix in="SourceAlpha" type="matrix" values="0 0 0 0 0 0 0 0 0 0 0 0 0 0 0 0 0 0 127 0" result="hardAlpha"/>
<feOffset dy="6.39554"/>
<feGaussianBlur stdDeviation="2.55822"/>
<feComposite in2="hardAlpha" operator="arithmetic" k2="-1" k3="1"/>
<feColorMatrix type="matrix" values="0 0 0 0 1 0 0 0 0 1 0 0 0 0 1 0 0 0 1 0"/>
<feBlend mode="normal" in2="shape" result="effect1_innerShadow_1_7"/>
</filter>
</defs>
</svg>
